HIERARCHY
ROOT root
{
	OFFSET	0	13.1	24.9
	CHANNELS 6  Xposition Yposition Zposition Xrotation Yrotation Zrotation
	JOINT spine_1
	{
		OFFSET	0	9.99999	0
		CHANNELS 3  Xrotation Yrotation Zrotation
		JOINT spine_2
		{
			OFFSET	0	112	-10
			CHANNELS 3  Xrotation Yrotation Zrotation
			JOINT spine_3
			{
				OFFSET	0	206.5	19.3
				CHANNELS 3  Xrotation Yrotation Zrotation
				JOINT spine_4
				{
					OFFSET	0	110.4	14.6
					CHANNELS 3  Xrotation Yrotation Zrotation
					JOINT neck_1
					{
						OFFSET	0	71.8	-50.3
						CHANNELS 3  Xrotation Yrotation Zrotation
						JOINT neck_2
						{
							OFFSET	0	86.2	-25.8
							CHANNELS 3  Xrotation Yrotation Zrotation
							JOINT head_ee
							{
								OFFSET	0	179.8	-8.7
								CHANNELS 3  Xrotation Yrotation Zrotation
								End Site
								{
									OFFSET	1	0	0
								}
							}
						}
					}
					JOINT left_clavicle
					{
						OFFSET	-43.2	22.4	-70.8
						CHANNELS 3  Xrotation Yrotation Zrotation
						JOINT left_shoulder
						{
							OFFSET	-93.9	-5.79999	48.7
							CHANNELS 3  Xrotation Yrotation Zrotation
							JOINT left_elbow
							{
								OFFSET	-291.4	-30.8	15.2
								CHANNELS 3  Xrotation Yrotation Zrotation
								JOINT left_lowarm_twist
								{
									OFFSET	-110.7	-3.89999	13.6
									CHANNELS 3  Xrotation Yrotation Zrotation
									JOINT left_hand
									{
										OFFSET	-110.7	-3.89999	13.6
										CHANNELS 3  Xrotation Yrotation Zrotation
										JOINT left_ee
										{
											OFFSET	-80.8	-5.10001	12.1
											CHANNELS 3  Xrotation Yrotation Zrotation
											End Site
											{
												OFFSET	1	0	0
											}
										}
									}
								}
							}
						}
					}
					JOINT right_clavicle
					{
						OFFSET	43.2	22.4	-70.8
						CHANNELS 3  Xrotation Yrotation Zrotation
						JOINT right_shoulder
						{
							OFFSET	93.9	-5.79999	48.7
							CHANNELS 3  Xrotation Yrotation Zrotation
							JOINT right_elbow
							{
								OFFSET	291.4	-30.8	15.2
								CHANNELS 3  Xrotation Yrotation Zrotation
								JOINT right_lowarm_twist
								{
									OFFSET	110.7	-3.89999	13.6
									CHANNELS 3  Xrotation Yrotation Zrotation
									JOINT right_hand
									{
										OFFSET	110.7	-3.89999	13.6
										CHANNELS 3  Xrotation Yrotation Zrotation
										JOINT right_ee
										{
											OFFSET	80.8	-5.10001	12.1
											CHANNELS 3  Xrotation Yrotation Zrotation
											End Site
											{
												OFFSET	1	0	0
											}
										}
									}
								}
							}
						}
					}
				}
			}
		}
	}
	JOINT left_hip
	{
		OFFSET	-82.8	-127.5	0.300001
		CHANNELS 3  Xrotation Yrotation Zrotation
		JOINT left_knee
		{
			OFFSET	-28.2	-396.7	2.2
			CHANNELS 3  Xrotation Yrotation Zrotation
			JOINT left_ankle
			{
				OFFSET	-11.7	-411.3	35.4
				CHANNELS 3  Xrotation Yrotation Zrotation
				JOINT left_toes
				{
					OFFSET	0	-60	-88.6
					CHANNELS 3  Xrotation Yrotation Zrotation
					JOINT left_foot_ee
					{
						OFFSET	-22.5	-16.5	-42.2
						CHANNELS 3  Xrotation Yrotation Zrotation
						End Site
						{
							OFFSET	1	0	0
						}
					}
				}
			}
		}
	}
	JOINT right_hip
	{
		OFFSET	82.8	-127.5	0.300001
		CHANNELS 3  Xrotation Yrotation Zrotation
		JOINT right_knee
		{
			OFFSET	28.2	-396.7	2.2
			CHANNELS 3  Xrotation Yrotation Zrotation
			JOINT right_ankle
			{
				OFFSET	11.7	-411.3	35.4
				CHANNELS 3  Xrotation Yrotation Zrotation
				JOINT right_toes
				{
					OFFSET	0	-60	-88.6
					CHANNELS 3  Xrotation Yrotation Zrotation
					JOINT right_foot_ee
					{
						OFFSET	22.5	-16.5	-42.2
						CHANNELS 3  Xrotation Yrotation Zrotation
						End Site
						{
							OFFSET	1	0	0
						}
					}
				}
			}
		}
	}
}
MOTION
Frames: 6
Frame Time: 0.02
1997.85 680.596 -616.763 -131.515 -86.2185 -132.163 -0.992617 0.430604 2.74494 -0.988461 0.255132 2.76676 -0.972796 -0.379052 2.75253 -0.983363 0.0602425 2.77784 -9.43638 0.830009 -6.89931 -9.30527 6.28961 -6.57013 -0.0 0.0 -0.0 -5.72939 21.4858 -5.73628 -8.60417 -17.5671 73.3336 0.171719 -4.86227 0.00729069 4.40985 0.134367 -0.547114 0.932487 29.4881 16.6755 -0.0 0.0 -0.0 9.98938 16.5414 -19.5957 25.9073 3.95175 -66.9771 3.74558 61.661 -2.23603 23.6555 -0.218512 2.99248 1.15947 -1.67603 -8.44335 0.0 0.0 0.0 29.0678 3.0588 -3.39126 3.31898 -0.150836 -0.486851 2.1581 8.65257 -0.314133 -18.2288 0.0 0.0 -0.0 0.0 -0.0 -20.504 42.5105 -4.38784 -1.53894 -0.0602997 -0.228468 40.542 0.884388 4.92923 16.0694 -0.0 -0.0 0.0 0.0 0.0 
2015.6 676.591 -625.104 -135.305 -85.6889 -135.905 -0.862258 0.384808 2.63631 -0.858417 0.216334 2.65543 -0.845485 -0.385743 2.63617 -0.855181 0.0352788 2.66399 -8.93202 0.523898 -7.09639 -8.78959 5.90463 -6.86923 -0.0 0.0 -0.0 -5.5407 21.3106 -5.50841 -8.72151 -17.3219 73.4948 0.177009 -5.01131 0.0077459 4.19564 0.128817 -0.520314 1.05318 29.5595 17.3758 -0.0 0.0 -0.0 9.50423 17.9622 -18.4345 24.1088 5.91267 -65.6761 3.78958 61.9393 -2.27481 23.3373 -0.223811 2.95219 1.13872 -3.02831 -8.84252 0.0 0.0 0.0 28.9964 3.43895 -2.83661 1.23593 -0.0528638 -0.182285 1.7611 7.47206 -0.256633 -18.3883 0.0 0.0 -0.0 0.0 -0.0 -21.5274 42.7208 -3.34969 -3.28887 -0.121373 -0.490076 40.4688 -0.118421 4.91513 16.7107 -0.0 -0.0 0.0 0.0 0.0 
2038.74 677.939 -630.12 -135.014 -85.7118 -135.585 -0.886042 0.367897 2.66333 -0.882117 0.197739 2.68132 -0.869906 -0.410837 2.65705 -0.879758 0.0137924 2.68856 -8.05252 0.112933 -6.51597 -7.92885 4.81927 -6.43907 -0.0 0.0 -0.0 -5.09418 20.7357 -5.00441 -8.72939 -17.2193 73.7891 0.180672 -5.11444 0.00806904 2.88424 0.0926555 -0.356703 1.14088 29.3952 17.8275 -0.0 0.0 -0.0 9.0964 20.8882 -17.3211 20.7517 7.81622 -64.2354 3.69596 61.3411 -2.19242 22.6806 -0.234044 2.86892 1.28506 -3.75335 -10.1096 0.0 0.0 0.0 28.7475 3.56464 -2.73317 -1.35372 0.053368 0.200887 0.540231 8.30477 -0.0789559 -19.7092 0.0 0.0 -0.0 0.0 -0.0 -21.6502 42.5099 -2.68988 -4.40806 -0.156228 -0.658299 40.3828 -0.73522 4.90371 17.2127 -0.0 -0.0 0.0 0.0 0.0 
2060.36 683.565 -637.025 -138.6 -85.5061 -138.97 -0.802439 0.365357 2.68752 -0.798441 0.193667 2.70531 -0.786385 -0.416304 2.68011 -0.796409 0.0120316 2.7122 -9.05765 0.249691 -6.10086 -8.95263 4.68754 -5.94182 -0.0 0.0 -0.0 -4.40433 20.2084 -4.11376 -8.71296 -17.5207 72.8754 0.189352 -5.35876 0.00886132 2.26475 0.0742718 -0.279709 1.41947 29.6194 19.476 -0.0 0.0 -0.0 9.49081 22.4082 -18.073 16.5643 7.69447 -62.7067 3.67292 61.1902 -2.17222 22.3713 -0.238532 2.82967 1.55113 -2.83318 -11.5429 0.0 0.0 0.0 28.2244 3.69712 -2.65216 -3.3176 0.122309 0.494386 1.0671 9.2774 -0.155776 -18.7235 0.0 0.0 -0.0 0.0 -0.0 -22.5914 42.3731 -1.40931 -5.12393 -0.176796 -0.766235 40.147 -0.93268 4.88237 17.5386 -0.0 -0.0 0.0 0.0 0.0 
2081.14 689.443 -643.299 -138.658 -86.2359 -138.848 -0.866704 0.223576 2.52054 -0.863172 0.0627866 2.52965 -0.857962 -0.507761 2.47899 -0.866521 -0.11001 2.52803 -8.01932 -0.0667906 -5.69142 -7.92508 3.90272 -5.6595 -0.0 0.0 -0.0 -4.24882 19.4852 -4.05137 -6.63728 -17.2468 73.4719 0.19819 -5.60732 0.00970578 1.5732 0.0527678 -0.193996 1.52861 29.6755 20.1173 -0.0 0.0 -0.0 9.33794 22.6093 -17.7148 13.2601 8.57435 -62.4625 3.69175 61.3136 -2.18873 21.1459 -0.254229 2.67393 1.50988 -4.03075 -11.73 0.0 0.0 0.0 26.9819 3.94395 -2.22437 -4.88621 0.170116 0.730366 1.44371 9.38943 -0.210563 -18.8961 0.0 0.0 -0.0 0.0 -0.0 -22.6827 42.5353 -1.44636 -6.90032 -0.221991 -1.03509 40.0502 -2.33729 4.8672 17.1966 -0.0 -0.0 0.0 0.0 0.0 
2105.56 700.05 -649.162 -148.168 -86.2553 -147.921 -0.876079 0.214626 2.41193 -0.872845 0.0607596 2.4207 -0.868037 -0.485626 2.37229 -0.875875 -0.104987 2.41918 -8.48495 -0.0696365 -5.37432 -8.40196 3.63396 -5.32428 -0.0 0.0 -0.0 -3.76304 18.7513 -3.48188 -5.27945 -17.3407 73.5089 0.202686 -5.73369 0.0101501 0.929703 0.0318281 -0.114472 1.43387 29.3687 19.4953 -0.0 0.0 -0.0 9.1412 22.8594 -17.2549 8.68632 8.59278 -62.3957 3.51708 60.1307 -2.03636 19.8256 -0.267409 2.50581 1.64648 -3.15017 -12.3125 0.0 0.0 0.0 24.4115 4.15419 -2.05649 -5.15394 0.177629 0.770767 3.20398 9.17881 -0.465124 -16.5756 0.0 0.0 -0.0 0.0 -0.0 -21.1501 40.9018 -1.82463 -9.69436 -0.276147 -1.46038 38.1983 -3.22776 4.70111 16.8655 -0.0 -0.0 0.0 0.0 0.0 
